#!OML:ASF H:\LiuWeirdWalks\Patient Classification 1\Patient 1\Session 1\male.ASF
:FULLY-SPECIFIED
:DEGREES
239
root 0.782126 17.9461 -26.6245 3.68546 5.72325 2.43309
lowerback 4.46483 -1.41592 -5.43396
upperback -2.72899 -2.15331 2.25856
thorax -5.06887 -0.835154 5.6054
lowerneck -20.2729 1.77842 5.55248
upperneck 25.525 2.68348 -6.87012
head 11.915 0.849579 -3.08668
rclavicle 2.61868e-014 -2.94201e-014
rhumerus -43.0333 -13.3015 -66.743
rradius 27.5427
rwrist -2.97935
rhand -15.3066 -2.34482
rfingers 7.12502
rthumb 10.8691 -32.0435
lclavicle 2.61868e-014 -2.94201e-014
lhumerus -43.345 6.31746 78.4962
lradius 32.3438
lwrist 5.32275
lhand -10.0831 1.7291
lfingers 7.12502
lthumb 15.9036 31.0961
rfemur -28.8433 -2.23453 17.9878
rtibia 29.1623
rfoot -6.63683 -16.8867
rtoes -11.5683
lfemur 18.9531 -3.95816 -26.3734
ltibia 2.73366
lfoot 2.76398 10.9576
ltoes -24.9345
240
root 0.766253 17.9541 -26.5106 3.64119 5.61972 2.29133
lowerback 4.44262 -1.4088 -5.32943
upperback -2.77472 -2.13391 2.30637
thorax -5.1084 -0.825744 5.59546
lowerneck -20.1343 1.79494 5.53502
upperneck 25.5266 2.72023 -6.87099
head 11.8905 0.866488 -3.07747
rclavicle 3.23468e-014 -1.27222e-014
rhumerus -43.1122 -13.1836 -66.7195
rradius 27.531
rwrist -2.92845
rhand -15.2849 -2.31307
rfingers 7.12502
rthumb 10.89 -32.0107
lclavicle 3.23468e-014 -1.27222e-014
lhumerus -43.5154 6.52333 78.4
lradius 32.3062
lwrist 5.32583
lhand -10.0768 1.73868
lfingers 7.12502
lthumb 15.9097 31.1052
rfemur -28.5392 -2.26652 18.244
rtibia 29.3078
rfoot -6.55244 -16.5411
rtoes -11.2669
lfemur 17.3958 -3.90497 -26.1239
ltibia 6.4368
lfoot 1.83752 11.2037
ltoes -25.4706
241
root 0.75002 17.9611 -26.3965 3.59177 5.49166 2.18372
lowerback 4.4383 -1.39739 -5.26246
upperback -2.82582 -2.11268 2.34515
thorax -5.16331 -0.813596 5.59807
lowerneck -20.0019 1.80448 5.48844
upperneck 25.55 2.75029 -6.84739
head 11.8744 0.88055 -3.05572
rclavicle -5.94801e-015 7.15625e-015
rhumerus -43.1966 -13.0316 -66.7168
rradius 27.5417
rwrist -2.92436
rhand -15.2783 -2.34727
rfingers 7.12502
rthumb 10.8963 -32.0446
lclavicle -5.94801e-015 7.15625e-015
lhumerus -43.7224 6.72046 78.3041
lradius 32.3159
lwrist 5.36264
lhand -10.0422 1.81574
lfingers 7.12502
lthumb 15.943 31.1796
rfemur -28.2314 -2.2725 18.4577
rtibia 29.5186
rfoot -6.64297 -16.2372
rtoes -10.9474
lfemur 16.4361 -3.82828 -25.9362
ltibia 8.96454
lfoot 1.54017 11.1881
ltoes -25.9933
242
root 0.733611 17.9593 -26.2826 3.5241 5.33925 2.12575
lowerback 4.44316 -1.38327 -5.23713
upperback -2.88746 -2.09204 2.36629
thorax -5.23394 -0.799765 5.60645
lowerneck -19.7694 1.81206 5.4253
upperneck 25.5298 2.78067 -6.80778
head 11.8209 0.896934 -3.02343
rclavicle 1.92138e-014 -3.97569e-015
rhumerus -43.3135 -12.8749 -66.7009
rradius 27.5457
rwrist -2.91713
rhand -15.2697 -2.36862
rfingers 7.12502
rthumb 10.9046 -32.0655
lclavicle 1.92138e-014 -3.97569e-015
lhumerus -43.992 6.89653 78.2054
lradius 32.3498
lwrist 5.40181
lhand -10.0105 1.88059
lfingers 7.12502
lthumb 15.9735 31.242
rfemur -27.9245 -2.25864 18.6109
rtibia 29.7853
rfoot -6.85702 -15.9777
rtoes -10.6714
lfemur 15.6709 -3.72554 -25.8195
ltibia 11.1493
lfoot 1.48554 11.0783
ltoes -26.5012
243
root 0.717487 17.9658 -26.1675 3.44483 5.17924 2.11123
lowerback 4.47811 -1.32714 -5.23844
upperback -2.86669 -2.01928 2.34818
thorax -5.24238 -0.764083 5.58306
lowerneck -19.8104 1.78302 5.34826
upperneck 25.5822 2.74223 -6.72861
head 11.844 0.881497 -2.98792
rclavicle 1.92635e-014 -1.11319e-014
rhumerus -43.3065 -12.911 -66.692
rradius 27.5439
rwrist -2.91099
rhand -15.2722 -2.38499
rfingers 7.12502
rthumb 10.9022 -32.082
lclavicle 1.92635e-014 -1.11319e-014
lhumerus -44.0413 6.96394 78.1576
lradius 32.3518
lwrist 5.42902
lhand -9.99437 1.88986
lfingers 7.12502
lthumb 15.9891 31.25
rfemur -27.5752 -2.24486 18.7103
rtibia 30.0471
rfoot -7.16953 -15.7485
rtoes -10.4868
lfemur 14.9865 -3.88446 -25.8311
ltibia 13.1634
lfoot 1.73755 11.1454
ltoes -27.0283
244
root 0.701224 17.9723 -26.0519 3.34255 5.02612 2.10879
lowerback 4.53124 -1.27295 -5.25599
upperback -2.83548 -1.95107 2.32827
thorax -5.24917 -0.73042 5.56769
lowerneck -19.8109 1.78404 5.33968
upperneck 25.5639 2.7396 -6.70821
head 11.8364 0.88213 -2.97864
rclavicle 2.57488e-014 -1.66979e-014
rhumerus -43.2942 -12.9406 -66.6888
rradius 27.5512
rwrist -2.92471
rhand -15.2706 -2.37546
rfingers 7.12502
rthumb 10.9037 -32.0724
lclavicle 2.57488e-014 -1.66979e-014
lhumerus -44.0865 7.00867 78.1254
lradius 32.3616
lwrist 5.45284
lhand -9.9869 1.85699
lfingers 7.12502
lthumb 15.9963 31.2166
rfemur -27.1882 -2.22357 18.7913
rtibia 30.29
rfoot -7.54363 -15.55
rtoes -10.3541
lfemur 14.3603 -4.0141 -25.8474
ltibia 15.0835
lfoot 2.14053 11.1292
ltoes -27.5799
245
root 0.685091 17.979 -25.9351 3.21511 4.87081 2.10472
lowerback 4.58737 -1.22014 -5.26914
upperback -2.79418 -1.88443 2.30847
thorax -5.24691 -0.698272 5.5498
lowerneck -19.7947 1.78385 5.31939
upperneck 25.5461 2.73727 -6.6787
head 11.8253 0.88319 -2.96381
rclavicle -2.4904e-014 1.82882e-014
rhumerus -43.277 -12.9522 -66.6997
rradius 27.5665
rwrist -2.95007
rhand -15.2793 -2.36873
rfingers 7.12502
rthumb 10.8954 -32.0661
lclavicle -2.4904e-014 1.82882e-014
lhumerus -44.1453 7.02512 78.1083
lradius 32.3889
lwrist 5.48304
lhand -9.98881 1.82293
lfingers 7.12502
lthumb 15.9944 31.1826
rfemur -26.7326 -2.19212 18.8727
rtibia 30.4481
rfoot -7.90419 -15.3567
rtoes -10.2524
lfemur 13.8036 -4.0952 -25.8541
ltibia 16.8865
lfoot 2.70599 11.0237
ltoes -28.177
246
root 0.66881 17.9859 -25.8162 3.05941 4.73924 2.08083
lowerback 4.63969 -1.28147 -5.31214
upperback -2.7477 -1.96728 2.39713
thorax -5.21279 -0.738562 5.67565
lowerneck -19.7276 1.96522 5.37618
upperneck 25.4421 3.0323 -6.86934
head 11.7985 0.997842 -2.99578
rclavicle 1.42255e-015 1.59028e-014
rhumerus -43.0958 -12.5538 -66.7876
rradius 27.5737
rwrist -3.03411
rhand -15.2801 -2.34167
rfingers 7.12502
rthumb 10.8946 -32.039
lclavicle 1.42255e-015 1.59028e-014
lhumerus -44.3341 7.40887 78.0665
lradius 32.4484
lwrist 5.48494
lhand -9.99986 1.74282
lfingers 7.12502
lthumb 15.9838 31.1034
rfemur -26.2101 -2.15309 18.9778
rtibia 30.5484
rfoot -8.2564 -15.1878
rtoes -10.145
lfemur 13.2538 -4.12323 -25.8156
ltibia 18.6897
lfoot 3.3647 10.8289
ltoes -28.8799
247
root 0.65244 17.9931 -25.6947 2.87594 4.61901 2.00109
lowerback 4.69023 -1.31946 -5.28608
upperback -2.68271 -2.01433 2.47268
thorax -5.16494 -0.764819 5.74479
lowerneck -19.6931 2.09583 5.41834
upperneck 25.367 3.24654 -7.01709
head 11.7828 1.0799 -3.02274
rclavicle 2.31584e-014 -1.11319e-014
rhumerus -42.9455 -12.2286 -66.8855
rradius 27.6035
rwrist -3.12751
rhand -15.3015 -2.35815
rfingers 7.12502
rthumb 10.874 -32.0566
lclavicle 2.31584e-014 -1.11319e-014
lhumerus -44.4842 7.66407 78.0506
lradius 32.5199
lwrist 5.48998
lhand -10.0024 1.70879
lfingers 7.12502
lthumb 15.9813 31.0696
rfemur -25.6138 -2.09106 19.1503
rtibia 30.5812
rfoot -8.62616 -15.0603
rtoes -9.98486
lfemur 12.6989 -4.07035 -25.6858
ltibia 20.5103
lfoot 4.11221 10.5473
ltoes -29.6142
248
root 0.635592 18.001 -25.5703 2.6833 4.53528 1.88351
lowerback 4.72082 -1.36118 -5.21797
upperback -2.60303 -2.06239 2.54699
thorax -5.09118 -0.794431 5.78749
lowerneck -19.6875 2.20687 5.45695
upperneck 25.3179 3.42879 -7.14762
head 11.7806 1.14895 -3.0484
rclavicle 1.66482e-015 -9.54166e-015
rhumerus -42.7897 -11.921 -67.0036
rradius 27.6408
rwrist -3.22295
rhand -15.3207 -2.36711
rfingers 7.12502
rthumb 10.8554 -32.0665
lclavicle 1.66482e-015 -9.54166e-015
lhumerus -44.597 7.85498 78.0486
lradius 32.5923
lwrist 5.49898
lhand -9.99751 1.69312
lfingers 7.12502
lthumb 15.986 31.0535
rfemur -24.9511 -2.01271 19.3722
rtibia 30.5402
rfoot -9.01243 -15.0076
rtoes -9.76655
lfemur 12.1137 -3.94301 -25.4729
ltibia 22.3569
lfoot 4.97326 10.1564
ltoes -30.2386
249
root 0.617885 18.0098 -25.4443 2.50551 4.47375 1.72636
lowerback 4.72744 -1.36558 -5.09643
upperback -2.52462 -2.05719 2.58969
thorax -5.01502 -0.799986 5.76095
lowerneck -19.7102 2.23906 5.47075
upperneck 25.3124 3.48202 -7.19194
head 11.7884 1.16805 -3.05895
rclavicle -1.55363e-014 -7.95139e-016
rhumerus -42.7017 -11.7549 -67.111
rradius 27.6947
rwrist -3.29876
rhand -15.3253 -2.35337
rfingers 7.12502
rthumb 10.851 -32.053
lclavicle -1.55363e-014 -7.95139e-016
lhumerus -44.6427 7.8546 78.0739
lradius 32.6538
lwrist 5.50992
lhand -9.98662 1.72694
lfingers 7.12502
lthumb 15.9965 31.0865
rfemur -24.2517 -1.90062 19.6479
rtibia 30.4191
rfoot -9.38228 -15.0387
rtoes -9.47462
lfemur 11.4507 -3.73801 -25.1706
ltibia 24.2451
lfoot 5.96725 9.66603
ltoes -30.6503
250
root 0.598772 18.0196 -25.3167 2.34554 4.45321 1.52212
lowerback 4.71858 -1.32552 -4.91473
upperback -2.46034 -1.98959 2.59447
thorax -4.95624 -0.776097 5.65476
lowerneck -19.6714 2.18723 5.48844
upperneck 25.2413 3.38862 -7.15495
head 11.7453 1.13364 -3.06094
rclavicle -2.12265e-014 -8.74653e-015
rhumerus -42.7218 -11.7675 -67.1945
rradius 27.7757
rwrist -3.35672
rhand -15.3172 -2.32914
rfingers 7.12502
rthumb 10.8588 -32.0284
lclavicle -2.12265e-014 -8.74653e-015
lhumerus -44.6265 7.61513 78.1293
lradius 32.6988
lwrist 5.52315
lhand -9.9765 1.75561
lfingers 7.12502
lthumb 16.0063 31.1144
rfemur -23.5117 -1.75425 19.985
rtibia 30.2075
rfoot -9.72947 -15.1629
rtoes -9.09759
lfemur 10.713 -3.47366 -24.7637
ltibia 26.1655
lfoot 7.11634 9.05245
ltoes -30.987
251
root 0.578152 18.0302 -25.1891 2.21598 4.44725 1.26456
lowerback 4.68473 -1.34832 -4.71652
upperback -2.40794 -2.00092 2.67299
thorax -4.88326 -0.790776 5.62289
lowerneck -19.6877 2.22355 5.50235
upperneck 25.2437 3.44672 -7.19317
head 11.7552 1.15586 -3.06863
rclavicle 1.09766e-014 -1.43125e-014
rhumerus -42.6407 -11.5412 -67.3242
rradius 27.8529
rwrist -3.43512
rhand -15.3171 -2.31817
rfingers 7.12502
rthumb 10.8589 -32.0174
lclavicle 1.09766e-014 -1.43125e-014
lhumerus -44.6598 7.58553 78.1672
lradius 32.7584
lwrist 5.50007
lhand -9.96624 1.78773
lfingers 7.12502
lthumb 16.0162 31.1457
rfemur -22.7693 -1.55788 20.3899
rtibia 29.9288
rfoot -10.0454 -15.3571
rtoes -8.66797
lfemur 9.85835 -3.15659 -24.2504
ltibia 28.151
lfoot 8.45676 8.32862
ltoes -31.0135
